<svg width="24" height="24" viewBox="0 0 24 24" fill="none" xmlns="http://www.w3.org/2000/svg">
<path fill-rule="evenodd" clip-rule="evenodd" d="M11.0175 3.95129C11.1535 4.02029 11.2875 4.09279 11.4195 4.16878L12 4.50028L12.5805 4.16878C14.017 3.34814 15.6338 2.8948 17.2876 2.84901C18.9413 2.80322 20.5808 3.16639 22.0605 3.90629C22.7895 4.26928 23.25 5.01629 23.25 5.83079V19.2378C23.25 20.2128 22.461 21.0003 21.4875 21.0003H21.4275C21.147 21.0003 20.8725 20.9253 20.634 20.7813C19.5964 20.1598 18.419 19.8097 17.2105 19.7633C16.0019 19.7169 14.8012 19.9757 13.719 20.5158L13.4205 20.6658C12.9797 20.8869 12.4932 21.0015 12 21.0003H11.8245C11.4464 21.0018 11.0732 20.9139 10.7355 20.7438L10.386 20.5683C9.2715 20.0117 8.03466 19.745 6.78983 19.793C5.545 19.841 4.33235 20.202 3.264 20.8428C3.0913 20.9461 2.89376 21.0006 2.6925 21.0003H2.5125C2.28105 21.0003 2.05186 20.9547 1.83802 20.8661C1.62418 20.7775 1.42989 20.6477 1.26622 20.4841C0.935691 20.1535 0.75 19.7052 0.75 19.2378V5.83079C0.75 5.01479 1.2105 4.27078 1.9395 3.90478C3.35007 3.19949 4.90682 2.83606 6.48387 2.84387C8.06092 2.85169 9.61399 3.23054 11.0175 3.94978V3.95129ZM13.125 18.3093V6.45028L13.698 6.12328C14.8037 5.49138 16.0472 5.13981 17.3201 5.09928C18.593 5.05875 19.8564 5.3305 21 5.89078V18.4263C19.773 17.8416 18.4343 17.5285 17.0753 17.5083C15.7162 17.4881 14.3688 17.7613 13.125 18.3093ZM10.875 18.3168V6.44728L10.302 6.12028C9.19608 5.48885 7.95238 5.1378 6.67953 5.09779C5.40668 5.05779 4.14338 5.33004 3 5.89078V18.4383C4.23036 17.8658 5.56753 17.559 6.9244 17.5378C8.28126 17.5166 9.62736 17.7815 10.875 18.3153V18.3168Z" fill="#8B8B8B"/>
</svg>
