<svg width="24" height="24" viewBox="0 0 24 24" fill="none" xmlns="http://www.w3.org/2000/svg">
<path fill-rule="evenodd" clip-rule="evenodd" d="M20.25 12C20.25 14.188 19.3808 16.2865 17.8336 17.8336C16.2865 19.3808 14.188 20.25 12 20.25C9.81196 20.25 7.71354 19.3808 6.16637 17.8336C4.61919 16.2865 3.75 14.188 3.75 12C3.75 9.81196 4.61919 7.71354 6.16637 6.16637C7.71354 4.61919 9.81196 3.75 12 3.75C14.188 3.75 16.2865 4.61919 17.8336 6.16637C19.3808 7.71354 20.25 9.81196 20.25 12ZM22.5 12C22.5 14.7848 21.3938 17.4555 19.4246 19.4246C17.4555 21.3938 14.7848 22.5 12 22.5C9.21523 22.5 6.54451 21.3938 4.57538 19.4246C2.60625 17.4555 1.5 14.7848 1.5 12C1.5 9.21523 2.60625 6.54451 4.57538 4.57538C6.54451 2.60625 9.21523 1.5 12 1.5C14.7848 1.5 17.4555 2.60625 19.4246 4.57538C21.3938 6.54451 22.5 9.21523 22.5 12ZM13.365 15.4545L9.0165 16.662C8.78379 16.7269 8.538 16.7288 8.30431 16.6675C8.07062 16.6062 7.8574 16.484 7.68649 16.3132C7.51558 16.1424 7.39311 15.9293 7.33162 15.6957C7.27012 15.4621 7.2718 15.2163 7.3365 14.9835L8.5455 10.6335C8.68406 10.1348 8.94931 9.68038 9.31545 9.3145C9.68159 8.94863 10.1362 8.68371 10.635 8.5455L14.985 7.338C15.2177 7.2731 15.4635 7.27119 15.6972 7.33248C15.9309 7.39377 16.1441 7.51605 16.315 7.68681C16.4859 7.85756 16.6084 8.07067 16.6699 8.30431C16.7314 8.53794 16.7297 8.78373 16.665 9.0165L15.456 13.3665C15.3176 13.865 15.0525 14.3193 14.6867 14.6852C14.3208 15.051 13.8665 15.3161 13.368 15.4545H13.365ZM13.5 12C13.5 12.3978 13.342 12.7794 13.0607 13.0607C12.7794 13.342 12.3978 13.5 12 13.5C11.6022 13.5 11.2206 13.342 10.9393 13.0607C10.658 12.7794 10.5 12.3978 10.5 12C10.5 11.6022 10.658 11.2206 10.9393 10.9393C11.2206 10.658 11.6022 10.5 12 10.5C12.3978 10.5 12.7794 10.658 13.0607 10.9393C13.342 11.2206 13.5 11.6022 13.5 12Z" fill="#8B8B8B"/>
</svg>
