<svg width="24" height="24" viewBox="0 0 24 24" fill="none" xmlns="http://www.w3.org/2000/svg">
<path fill-rule="evenodd" clip-rule="evenodd" d="M10.254 4.803L2.61 8.079C2.50313 8.12479 2.41205 8.20092 2.34805 8.29798C2.28404 8.39503 2.24992 8.50874 2.24992 8.625C2.24992 8.74126 2.28404 8.85497 2.34805 8.95202C2.41205 9.04908 2.50313 9.12522 2.61 9.171L10.254 12.447C10.7209 12.647 11.2236 12.7501 11.7315 12.75H12.2685C12.7764 12.7501 13.2791 12.647 13.746 12.447L21.39 9.171C21.4969 9.12522 21.5879 9.04908 21.652 8.95202C21.716 8.85497 21.7501 8.74126 21.7501 8.625C21.7501 8.50874 21.716 8.39503 21.652 8.29798C21.5879 8.20092 21.4969 8.12479 21.39 8.079L13.746 4.803C13.2791 4.60298 12.7764 4.49989 12.2685 4.5H11.7315C11.2236 4.49989 10.7209 4.60298 10.254 4.803ZM2.25 11.463L4.5 12.429V17.271C4.50002 17.8282 4.65524 18.3745 4.94826 18.8484C5.24129 19.3224 5.66053 19.7054 6.159 19.9545L7.368 20.559C8.80886 21.2793 10.3961 21.6584 12.007 21.667C13.6178 21.6755 15.209 21.3134 16.6575 20.6085L18.021 19.9455C18.5269 19.6994 18.9533 19.316 19.2517 18.8391C19.5501 18.3622 19.7084 17.811 19.7085 17.2485V12.339L22.2765 11.238C22.7875 11.0185 23.2228 10.6539 23.5288 10.1895C23.8347 9.72506 23.9977 9.18113 23.9977 8.625C23.9977 8.06887 23.8347 7.52494 23.5288 7.06051C23.2228 6.59609 22.7875 6.23155 22.2765 6.012L14.6325 2.7345C13.8854 2.41457 13.0812 2.24974 12.2685 2.25H11.7315C10.9188 2.24974 10.1146 2.41457 9.3675 2.7345L1.725 6.012C1.2138 6.23162 0.778064 6.59607 0.471534 7.0604C0.165003 7.52473 0.00108658 8.06862 0 8.625L0 15.375C0 15.6734 0.118526 15.9595 0.329505 16.1705C0.540483 16.3815 0.826631 16.5 1.125 16.5C1.42337 16.5 1.70952 16.3815 1.9205 16.1705C2.13147 15.9595 2.25 15.6734 2.25 15.375V11.463ZM6.75 17.271V13.3935L9.3675 14.5155C10.1146 14.8354 10.9188 15.0003 11.7315 15H12.2685C13.0812 15.0003 13.8854 14.8354 14.6325 14.5155L17.4585 13.3035V17.2485C17.4585 17.3894 17.4188 17.5274 17.344 17.6468C17.2692 17.7662 17.1623 17.8621 17.0355 17.9235L15.672 18.5865C14.534 19.1399 13.2839 19.424 12.0185 19.417C10.7531 19.41 9.5063 19.112 8.3745 18.546L7.164 17.9415C7.03958 17.8792 6.93496 17.7834 6.86185 17.665C6.78873 17.5466 6.75 17.4102 6.75 17.271Z" fill="#8B8B8B"/>
</svg>
