<svg width="118" height="50" viewBox="0 0 118 50" fill="none" xmlns="http://www.w3.org/2000/svg">
<path d="M37.037 31.8182C37.037 41.8597 28.746 50 18.5185 50C8.29102 50 0 41.8597 0 31.8182C0 21.7766 12.2222 6.54545 18.5185 0C24.8148 6.63636 37.037 21.7766 37.037 31.8182Z" fill="#31C1FF"/>
<path d="M52.6324 37V19.5455H56.5642V22.5114H56.7687C57.1324 21.5114 57.7347 20.7311 58.5756 20.1705C59.4165 19.6023 60.4203 19.3182 61.5869 19.3182C62.7687 19.3182 63.765 19.6061 64.5756 20.1818C65.3937 20.75 65.9695 21.5265 66.3028 22.5114H66.4847C66.871 21.5417 67.5225 20.7689 68.4392 20.1932C69.3634 19.6098 70.4581 19.3182 71.7233 19.3182C73.3294 19.3182 74.64 19.8258 75.6551 20.8409C76.6703 21.8561 77.1778 23.3371 77.1778 25.2841V37H73.0528V25.9205C73.0528 24.8371 72.765 24.0455 72.1892 23.5455C71.6134 23.0379 70.9089 22.7841 70.0756 22.7841C69.0831 22.7841 68.3066 23.0947 67.746 23.7159C67.193 24.3295 66.9165 25.1288 66.9165 26.1136V37H62.8824V25.75C62.8824 24.8485 62.6097 24.1288 62.0642 23.5909C61.5263 23.053 60.8218 22.7841 59.9506 22.7841C59.3597 22.7841 58.8218 22.9356 58.3369 23.2386C57.8521 23.5341 57.4657 23.9545 57.1778 24.5C56.89 25.0379 56.746 25.6667 56.746 26.3864V37H52.6324ZM88.1648 37.3409C86.4602 37.3409 84.983 36.9659 83.733 36.2159C82.483 35.4659 81.5133 34.4167 80.8239 33.0682C80.142 31.7197 79.8011 30.1439 79.8011 28.3409C79.8011 26.5379 80.142 24.9583 80.8239 23.6023C81.5133 22.2462 82.483 21.1932 83.733 20.4432C84.983 19.6932 86.4602 19.3182 88.1648 19.3182C89.8693 19.3182 91.3466 19.6932 92.5966 20.4432C93.8466 21.1932 94.8125 22.2462 95.4943 23.6023C96.1837 24.9583 96.5284 26.5379 96.5284 28.3409C96.5284 30.1439 96.1837 31.7197 95.4943 33.0682C94.8125 34.4167 93.8466 35.4659 92.5966 36.2159C91.3466 36.9659 89.8693 37.3409 88.1648 37.3409ZM88.1875 34.0455C89.1117 34.0455 89.8845 33.7917 90.5057 33.2841C91.1269 32.7689 91.589 32.0795 91.892 31.2159C92.2027 30.3523 92.358 29.3902 92.358 28.3295C92.358 27.2614 92.2027 26.2955 91.892 25.4318C91.589 24.5606 91.1269 23.8674 90.5057 23.3523C89.8845 22.8371 89.1117 22.5795 88.1875 22.5795C87.2405 22.5795 86.4527 22.8371 85.8239 23.3523C85.2027 23.8674 84.7367 24.5606 84.4261 25.4318C84.1231 26.2955 83.9716 27.2614 83.9716 28.3295C83.9716 29.3902 84.1231 30.3523 84.4261 31.2159C84.7367 32.0795 85.2027 32.7689 85.8239 33.2841C86.4527 33.7917 87.2405 34.0455 88.1875 34.0455ZM104.243 37.3523C103.137 37.3523 102.14 37.1553 101.254 36.7614C100.375 36.3598 99.6782 35.7689 99.1631 34.9886C98.6555 34.2083 98.4017 33.2462 98.4017 32.1023C98.4017 31.1174 98.5835 30.303 98.9472 29.6591C99.3108 29.0152 99.807 28.5 100.436 28.1136C101.065 27.7273 101.773 27.4356 102.561 27.2386C103.356 27.0341 104.178 26.8864 105.027 26.7955C106.049 26.6894 106.879 26.5947 107.515 26.5114C108.152 26.4205 108.614 26.2841 108.902 26.1023C109.197 25.9129 109.345 25.6212 109.345 25.2273V25.1591C109.345 24.303 109.091 23.6402 108.584 23.1705C108.076 22.7008 107.345 22.4659 106.39 22.4659C105.383 22.4659 104.584 22.6856 103.993 23.125C103.409 23.5644 103.015 24.0833 102.811 24.6818L98.9699 24.1364C99.2729 23.0758 99.7729 22.1894 100.47 21.4773C101.167 20.7576 102.019 20.2197 103.027 19.8636C104.034 19.5 105.148 19.3182 106.368 19.3182C107.209 19.3182 108.046 19.4167 108.879 19.6136C109.712 19.8106 110.474 20.1364 111.163 20.5909C111.852 21.0379 112.405 21.6477 112.822 22.4205C113.246 23.1932 113.459 24.1591 113.459 25.3182V37H109.504V34.6023H109.368C109.118 35.0871 108.765 35.5417 108.311 35.9659C107.864 36.3826 107.299 36.7197 106.618 36.9773C105.943 37.2273 105.152 37.3523 104.243 37.3523ZM105.311 34.3295C106.137 34.3295 106.852 34.1667 107.459 33.8409C108.065 33.5076 108.53 33.0682 108.856 32.5227C109.19 31.9773 109.356 31.3826 109.356 30.7386V28.6818C109.227 28.7879 109.008 28.8864 108.697 28.9773C108.394 29.0682 108.053 29.1477 107.674 29.2159C107.296 29.2841 106.921 29.3447 106.549 29.3977C106.178 29.4508 105.856 29.4962 105.584 29.5341C104.97 29.6174 104.421 29.7538 103.936 29.9432C103.451 30.1326 103.068 30.3977 102.788 30.7386C102.508 31.072 102.368 31.5038 102.368 32.0341C102.368 32.7917 102.644 33.3636 103.197 33.75C103.75 34.1364 104.455 34.3295 105.311 34.3295Z" fill="#31C1FF"/>
</svg>
